<svg xmlns="http://www.w3.org/2000/svg" xmlns:v="https://svgstorm.com"
viewBox = "0 0 200 200"
width="200"
height="200">
<g fill="None" fill-opacity="0.0" stroke="#000000" stroke-opacity="0.00" stroke-width="0.3"><path d="
M 0.00 200.00 
L 200.00 200.00
L 200.00 0.00
L 0.00 0.00
L 0.00 200.00
M 142.00 92.00 
C 147.93 78.61 154.56 65.54 160.00 52.00
C 171.25 54.27 160.48 68.96 157.08 75.08 C 153.68 81.19 149.76 98.77 142.00 92.00
M 57.00 59.00 
C 57.70 62.27 55.57 64.77 56.00 68.00
C 74.89 68.17 92.95 68.18 110.00 68.00 C 127.06 67.82 108.35 85.56 120.00 89.00
C 115.33 89.00 110.67 89.00 106.00 89.00
C 110.65 87.82 116.23 78.05 110.22 73.78 C 104.21 69.51 101.40 84.11 107.00 87.00
C 98.12 85.90 92.12 90.50 83.00 89.00
C 86.74 87.79 92.73 77.04 86.69 73.31 C 80.66 69.57 78.49 84.83 84.00 87.00
C 80.00 87.00 76.00 87.00 72.00 87.00
C 77.70 83.91 77.95 70.99 69.00 71.00
C 67.51 78.15 66.48 87.12 72.00 92.00
C 67.33 92.00 62.67 92.00 58.00 92.00
C 64.25 87.30 63.08 79.49 62.00 72.00
C 58.07 68.64 54.63 68.70 56.00 75.00
C 53.35 72.17 53.46 67.59 52.00 64.00
C 43.21 60.65 40.69 70.15 44.00 76.00
C 46.86 75.05 46.12 70.90 49.00 70.00
C 48.35 75.50 50.32 82.33 48.00 87.00
C 46.00 84.95 47.01 80.12 43.00 81.00
C 41.50 87.33 44.17 91.17 49.00 94.00
C 43.85 95.12 34.33 96.81 30.00 93.00
C 37.42 92.42 36.86 85.79 36.00 80.00 C 35.14 74.21 39.04 64.83 31.00 64.00
C 34.91 71.09 25.54 73.97 21.00 77.00
C 21.79 82.95 33.22 85.52 30.00 92.00
C 23.22 88.02 17.90 81.39 11.00 78.00
C 20.08 62.90 39.69 58.84 57.00 59.00
M 124.00 61.00 
C 124.72 65.60 122.47 69.43 123.00 74.00
C 115.87 74.56 115.17 57.35 124.00 61.00
M 167.00 92.00 
C 164.43 85.49 174.98 82.81 176.00 77.00
C 170.07 73.96 161.47 69.67 167.00 62.00
C 173.34 63.96 173.33 68.69 179.75 71.25 C 186.17 73.80 186.57 78.98 180.25 82.25 C 173.93 85.51 173.16 89.26 167.00 92.00
M 143.00 66.00 
C 141.04 69.23 143.28 74.25 141.00 77.00
C 140.44 68.48 126.62 68.76 132.09 73.92 C 137.55 79.07 146.08 77.90 143.02 87.02 C 139.97 96.15 129.67 88.18 125.00 92.00
C 125.77 88.50 123.14 82.98 127.00 81.00
C 127.63 90.45 142.01 86.53 134.92 83.08 C 127.83 79.63 121.83 76.28 126.26 68.26 C 130.69 60.24 139.52 69.76 143.00 66.00
M 19.00 105.00 
C 15.89 104.91 17.76 99.09 13.00 101.00
C 11.94 107.47 13.35 120.81 19.00 110.00
C 18.60 121.16 10.91 119.11 10.00 109.00 C 9.09 98.89 17.78 92.48 19.00 105.00
M 38.00 98.00 
C 34.99 103.74 42.51 112.37 36.89 116.89 C 31.28 121.41 29.32 108.45 31.00 104.00
C 36.32 104.33 34.86 99.45 38.00 98.00
M 70.00 105.00 
C 68.27 103.10 67.63 99.83 64.00 101.00
C 62.90 108.05 64.17 120.15 71.00 111.00
C 73.98 115.64 64.29 120.87 62.75 116.25 C 61.22 111.62 61.13 104.10 62.33 99.33 C 63.53 94.56 75.77 100.55 70.00 105.00
M 87.00 98.00 
C 84.50 101.64 85.82 103.41 87.00 107.00
C 80.93 107.76 86.59 114.65 84.00 118.00
C 81.20 114.27 78.44 98.15 87.00 98.00
M 92.00 101.00 
C 95.43 105.39 91.05 111.93 91.00 118.00
C 89.51 112.89 89.12 106.38 90.00 101.00
C 88.59 96.10 98.16 99.12 92.00 101.00
M 108.00 98.00 
C 108.81 98.81 107.69 101.77 106.29 100.63 C 104.90 99.50 107.10 97.10 108.00 98.00
M 143.00 102.00 
C 145.43 107.46 139.44 113.19 147.00 115.00
C 146.29 113.16 147.91 110.57 150.00 111.00
C 150.62 112.94 148.80 114.13 149.00 116.00
C 149.36 118.53 139.76 118.89 141.03 114.97 C 142.31 111.04 139.34 105.73 141.00 102.00
C 137.68 95.34 155.76 98.03 149.00 105.00
C 147.65 103.27 145.61 98.75 143.00 102.00
M 159.00 118.00 
C 155.96 115.09 160.55 108.13 156.00 106.00
C 153.12 109.00 155.20 114.88 153.00 118.00
C 151.19 111.83 151.61 104.20 153.00 98.00
C 156.94 103.41 163.59 109.20 159.00 118.00
M 28.00 103.00 
C 32.30 105.94 28.64 120.88 22.93 117.07 C 17.21 113.26 22.55 99.28 28.00 103.00
M 43.00 115.00 
C 51.40 107.68 46.22 120.07 42.33 117.67 C 38.43 115.26 39.24 101.67 45.01 103.01 C 50.78 104.35 45.40 111.96 43.00 115.00
M 73.00 109.00 
C 79.40 107.32 76.91 107.22 74.00 104.00
C 80.34 100.94 81.37 109.04 80.00 115.00 C 78.63 120.96 69.17 115.64 73.00 109.00
M 103.00 112.00 
C 104.21 127.32 87.09 108.32 97.26 103.26 C 107.43 98.20 95.67 121.95 103.00 112.00
M 107.00 118.00 
C 105.40 114.07 105.30 106.86 107.00 103.00
C 108.72 107.05 108.54 113.62 107.00 118.00
M 116.00 118.00 
C 113.98 114.46 115.45 109.95 115.00 106.00
C 109.13 106.27 114.10 114.52 111.00 117.00
C 108.23 114.20 109.47 101.25 115.01 103.01 C 120.55 104.77 118.13 115.42 116.00 118.00
M 122.00 114.00 
C 124.58 116.53 124.45 111.29 127.00 112.00
C 127.25 123.33 114.09 114.93 119.33 106.33 C 124.57 97.73 130.45 109.78 122.00 114.00
M 162.00 108.00 
C 168.96 108.14 162.86 106.46 163.00 103.00
C 169.30 102.28 171.18 111.02 168.22 116.22 C 165.26 121.42 157.38 112.99 162.00 108.00
M 178.00 106.00 
C 178.72 108.24 178.21 112.64 178.00 115.00
C 177.14 119.92 170.08 118.45 171.00 113.00
C 169.35 111.40 169.75 108.60 171.00 107.00
C 171.00 106.50 171.00 106.00 171.00 106.00
C 170.94 101.58 178.00 102.53 178.00 106.00
M 182.00 108.00 
C 194.90 108.59 179.16 126.81 180.00 112.00
C 182.01 112.33 184.57 117.21 185.00 112.00
C 182.19 113.11 175.72 104.95 181.26 103.26 C 186.79 101.56 185.92 107.91 182.00 108.00
M 52.00 114.00 
C 55.46 119.29 46.65 116.81 52.00 114.00
M 130.00 118.00 
C 126.99 113.52 133.71 114.33 130.00 118.00 Z"/>
</g>
<g fill="None" fill-opacity="0.0" stroke="#FEFEFE" stroke-opacity="0.80" stroke-width="0.3"><path d="
M 142.00 92.00 
C 149.76 98.77 153.68 81.19 157.08 75.08 C 160.48 68.96 171.25 54.27 160.00 52.00
C 154.56 65.54 147.93 78.61 142.00 92.00 Z"/>
</g>
<g fill="None" fill-opacity="0.0" stroke="#FEFEFE" stroke-opacity="0.74" stroke-width="0.3"><path d="
M 57.00 59.00 
C 39.69 58.84 20.08 62.90 11.00 78.00
C 17.90 81.39 23.22 88.02 30.00 92.00
C 33.22 85.52 21.79 82.95 21.00 77.00
C 25.54 73.97 34.91 71.09 31.00 64.00
C 39.04 64.83 35.14 74.21 36.00 80.00 C 36.86 85.79 37.42 92.42 30.00 93.00
C 34.33 96.81 43.85 95.12 49.00 94.00
C 44.17 91.17 41.50 87.33 43.00 81.00
C 47.01 80.12 46.00 84.95 48.00 87.00
C 50.32 82.33 48.35 75.50 49.00 70.00
C 46.12 70.90 46.86 75.05 44.00 76.00
C 40.69 70.15 43.21 60.65 52.00 64.00
C 53.46 67.59 53.35 72.17 56.00 75.00
C 54.63 68.70 58.07 68.64 62.00 72.00
C 63.08 79.49 64.25 87.30 58.00 92.00
C 62.67 92.00 67.33 92.00 72.00 92.00
C 66.48 87.12 67.51 78.15 69.00 71.00
C 77.95 70.99 77.70 83.91 72.00 87.00
C 76.00 87.00 80.00 87.00 84.00 87.00
C 78.49 84.83 80.66 69.57 86.69 73.31 C 92.73 77.04 86.74 87.79 83.00 89.00
C 92.12 90.50 98.12 85.90 107.00 87.00
C 101.40 84.11 104.21 69.51 110.22 73.78 C 116.23 78.05 110.65 87.82 106.00 89.00
C 110.67 89.00 115.33 89.00 120.00 89.00
C 108.35 85.56 127.06 67.82 110.00 68.00 C 92.95 68.18 74.89 68.17 56.00 68.00
C 55.57 64.77 57.70 62.27 57.00 59.00
M 93.00 86.00 
C 92.66 80.55 94.32 76.18 93.00 71.00
C 101.35 71.36 101.67 86.23 93.00 86.00 Z"/>
</g>
<g fill="None" fill-opacity="0.0" stroke="#FEFEFE" stroke-opacity="0.67" stroke-width="0.3"><path d="
M 124.00 61.00 
C 115.17 57.35 115.87 74.56 123.00 74.00
C 122.47 69.43 124.72 65.60 124.00 61.00 Z"/>
</g>
<g fill="None" fill-opacity="0.0" stroke="#FEFEFE" stroke-opacity="0.76" stroke-width="0.3"><path d="
M 167.00 92.00 
C 173.16 89.26 173.93 85.51 180.25 82.25 C 186.57 78.98 186.17 73.80 179.75 71.25 C 173.33 68.69 173.34 63.96 167.00 62.00
C 161.47 69.67 170.07 73.96 176.00 77.00
C 174.98 82.81 164.43 85.49 167.00 92.00 Z"/>
</g>
<g fill="None" fill-opacity="0.0" stroke="#FEFEFE" stroke-opacity="0.74" stroke-width="0.3"><path d="
M 143.00 66.00 
C 139.52 69.76 130.69 60.24 126.26 68.26 C 121.83 76.28 127.83 79.63 134.92 83.08 C 142.01 86.53 127.63 90.45 127.00 81.00
C 123.14 82.98 125.77 88.50 125.00 92.00
C 129.67 88.18 139.97 96.15 143.02 87.02 C 146.08 77.90 137.55 79.07 132.09 73.92 C 126.62 68.76 140.44 68.48 141.00 77.00
C 143.28 74.25 141.04 69.23 143.00 66.00 Z"/>
</g>
<g fill="None" fill-opacity="0.0" stroke="#000000" stroke-opacity="0.00" stroke-width="0.3"><path d="
M 93.00 86.00 
C 101.67 86.23 101.35 71.36 93.00 71.00
C 94.32 76.18 92.66 80.55 93.00 86.00 Z"/>
</g>
<g fill="None" fill-opacity="0.0" stroke="#FFFFFF" stroke-opacity="0.45" stroke-width="0.3"><path d="
M 19.00 105.00 
C 17.78 92.48 9.09 98.89 10.00 109.00 C 10.91 119.11 18.60 121.16 19.00 110.00
C 13.35 120.81 11.94 107.47 13.00 101.00
C 17.76 99.09 15.89 104.91 19.00 105.00 Z"/>
</g>
<g fill="None" fill-opacity="0.0" stroke="#FEFEFE" stroke-opacity="0.64" stroke-width="0.3"><path d="
M 38.00 98.00 
C 34.86 99.45 36.32 104.33 31.00 104.00
C 29.32 108.45 31.28 121.41 36.89 116.89 C 42.51 112.37 34.99 103.74 38.00 98.00
M 36.00 106.00 
C 35.52 108.97 37.69 114.95 33.00 115.00
C 33.75 112.01 30.83 105.26 36.00 106.00 Z"/>
</g>
<g fill="None" fill-opacity="0.0" stroke="#FFFFFF" stroke-opacity="0.51" stroke-width="0.3"><path d="
M 70.00 105.00 
C 75.77 100.55 63.53 94.56 62.33 99.33 C 61.13 104.10 61.22 111.62 62.75 116.25 C 64.29 120.87 73.98 115.64 71.00 111.00
C 64.17 120.15 62.90 108.05 64.00 101.00
C 67.63 99.83 68.27 103.10 70.00 105.00 Z"/>
</g>
<g fill="None" fill-opacity="0.0" stroke="#FEFEFE" stroke-opacity="0.45" stroke-width="0.3"><path d="
M 87.00 98.00 
C 78.44 98.15 81.20 114.27 84.00 118.00
C 86.59 114.65 80.93 107.76 87.00 107.00
C 85.82 103.41 84.50 101.64 87.00 98.00 Z"/>
</g>
<g fill="None" fill-opacity="0.0" stroke="#FEFEFE" stroke-opacity="0.47" stroke-width="0.3"><path d="
M 90.00 101.00 
C 90.18 100.76 91.81 100.76 92.00 101.00
C 98.16 99.12 88.59 96.10 90.00 101.00 Z"/>
</g>
<g fill="None" fill-opacity="0.0" stroke="#FFFFFF" stroke-opacity="0.34" stroke-width="0.3"><path d="
M 108.00 98.00 
C 107.10 97.10 104.90 99.50 106.29 100.63 C 107.69 101.77 108.81 98.81 108.00 98.00 Z"/>
</g>
<g fill="None" fill-opacity="0.0" stroke="#FFFFFF" stroke-opacity="0.48" stroke-width="0.3"><path d="
M 141.00 102.00 
C 141.08 101.81 142.60 102.20 143.00 102.00
C 145.61 98.75 147.65 103.27 149.00 105.00
C 155.76 98.03 137.68 95.34 141.00 102.00 Z"/>
</g>
<g fill="None" fill-opacity="0.0" stroke="#FEFEFE" stroke-opacity="0.43" stroke-width="0.3"><path d="
M 159.00 118.00 
C 163.59 109.20 156.94 103.41 153.00 98.00
C 151.61 104.20 151.19 111.83 153.00 118.00
C 155.20 114.88 153.12 109.00 156.00 106.00
C 160.55 108.13 155.96 115.09 159.00 118.00 Z"/>
</g>
<g fill="None" fill-opacity="0.0" stroke="#FFFFFF" stroke-opacity="0.63" stroke-width="0.3"><path d="
M 92.00 101.00 
C 91.81 100.76 90.18 100.76 90.00 101.00
C 89.12 106.38 89.51 112.89 91.00 118.00
C 91.05 111.93 95.43 105.39 92.00 101.00 Z"/>
</g>
<g fill="None" fill-opacity="0.0" stroke="#FFFFFF" stroke-opacity="0.63" stroke-width="0.3"><path d="
M 149.00 116.00 
C 148.96 115.72 147.24 115.06 147.00 115.00
C 139.44 113.19 145.43 107.46 143.00 102.00
C 142.60 102.20 141.08 101.81 141.00 102.00
C 139.34 105.73 142.31 111.04 141.03 114.97 C 139.76 118.89 149.36 118.53 149.00 116.00 Z"/>
</g>
<g fill="None" fill-opacity="0.0" stroke="#FEFEFE" stroke-opacity="0.54" stroke-width="0.3"><path d="
M 28.00 103.00 
C 22.55 99.28 17.21 113.26 22.93 117.07 C 28.64 120.88 32.30 105.94 28.00 103.00
M 27.00 106.00 
C 26.52 108.97 28.69 114.95 24.00 115.00
C 24.75 112.01 21.83 105.26 27.00 106.00 Z"/>
</g>
<g fill="None" fill-opacity="0.0" stroke="#FEFEFE" stroke-opacity="0.52" stroke-width="0.3"><path d="
M 43.00 115.00 
C 45.40 111.96 50.78 104.35 45.01 103.01 C 39.24 101.67 38.43 115.26 42.33 117.67 C 46.22 120.07 51.40 107.68 43.00 115.00
M 46.00 106.00 
C 44.09 112.45 40.48 106.13 46.00 106.00 Z"/>
</g>
<g fill="None" fill-opacity="0.0" stroke="#FEFEFE" stroke-opacity="0.56" stroke-width="0.3"><path d="
M 73.00 109.00 
C 69.17 115.64 78.63 120.96 80.00 115.00 C 81.37 109.04 80.34 100.94 74.00 104.00
C 76.91 107.22 79.40 107.32 73.00 109.00
M 78.00 111.00 
C 78.94 118.52 71.18 110.57 78.00 111.00 Z"/>
</g>
<g fill="None" fill-opacity="0.0" stroke="#FEFEFE" stroke-opacity="0.53" stroke-width="0.3"><path d="
M 103.00 112.00 
C 95.67 121.95 107.43 98.20 97.26 103.26 C 87.09 108.32 104.21 127.32 103.00 112.00
M 101.00 106.00 
C 99.72 112.91 95.12 105.91 101.00 106.00 Z"/>
</g>
<g fill="None" fill-opacity="0.0" stroke="#FEFEFE" stroke-opacity="0.43" stroke-width="0.3"><path d="
M 107.00 118.00 
C 108.54 113.62 108.72 107.05 107.00 103.00
C 105.30 106.86 105.40 114.07 107.00 118.00 Z"/>
</g>
<g fill="None" fill-opacity="0.0" stroke="#FEFEFE" stroke-opacity="0.41" stroke-width="0.3"><path d="
M 116.00 118.00 
C 118.13 115.42 120.55 104.77 115.01 103.01 C 109.47 101.25 108.23 114.20 111.00 117.00
C 114.10 114.52 109.13 106.27 115.00 106.00
C 115.45 109.95 113.98 114.46 116.00 118.00 Z"/>
</g>
<g fill="None" fill-opacity="0.0" stroke="#FEFEFE" stroke-opacity="0.46" stroke-width="0.3"><path d="
M 122.00 114.00 
C 130.45 109.78 124.57 97.73 119.33 106.33 C 114.09 114.93 127.25 123.33 127.00 112.00
C 124.45 111.29 124.58 116.53 122.00 114.00
M 123.00 109.00 
C 122.96 109.85 121.74 110.86 121.00 111.00
C 121.28 109.72 120.24 107.50 122.00 107.00
C 122.84 103.79 124.98 108.79 123.00 109.00 Z"/>
</g>
<g fill="None" fill-opacity="0.0" stroke="#FEFEFE" stroke-opacity="0.44" stroke-width="0.3"><path d="
M 162.00 108.00 
C 157.38 112.99 165.26 121.42 168.22 116.22 C 171.18 111.02 169.30 102.28 163.00 103.00
C 162.86 106.46 168.96 108.14 162.00 108.00
M 166.00 111.00 
C 167.56 117.97 160.73 112.19 166.00 111.00 Z"/>
</g>
<g fill="None" fill-opacity="0.0" stroke="#FEFEFE" stroke-opacity="0.54" stroke-width="0.3"><path d="
M 171.00 106.00 
C 171.02 105.97 171.74 106.88 172.00 107.00
C 172.41 107.19 173.00 107.00 173.00 107.00
C 174.04 105.94 174.65 106.17 176.00 107.00
C 176.36 107.22 177.00 107.00 177.00 107.00
C 177.26 106.88 178.00 106.17 178.00 106.00
C 178.00 102.53 170.94 101.58 171.00 106.00 Z"/>
</g>
<g fill="None" fill-opacity="0.0" stroke="#FEFEFE" stroke-opacity="0.51" stroke-width="0.3"><path d="
M 182.00 108.00 
C 185.92 107.91 186.79 101.56 181.26 103.26 C 175.72 104.95 182.19 113.11 185.00 112.00
C 184.57 117.21 182.01 112.33 180.00 112.00
C 179.16 126.81 194.90 108.59 182.00 108.00 Z"/>
</g>
<g fill="None" fill-opacity="0.0" stroke="#000000" stroke-opacity="0.00" stroke-width="0.3"><path d="
M 27.00 106.00 
C 21.83 105.26 24.75 112.01 24.00 115.00
C 28.69 114.95 26.52 108.97 27.00 106.00 Z"/>
</g>
<g fill="None" fill-opacity="0.0" stroke="#000000" stroke-opacity="0.00" stroke-width="0.3"><path d="
M 36.00 106.00 
C 30.83 105.26 33.75 112.01 33.00 115.00
C 37.69 114.95 35.52 108.97 36.00 106.00 Z"/>
</g>
<g fill="None" fill-opacity="0.0" stroke="#000000" stroke-opacity="0.00" stroke-width="0.3"><path d="
M 46.00 106.00 
C 40.48 106.13 44.09 112.45 46.00 106.00 Z"/>
</g>
<g fill="None" fill-opacity="0.0" stroke="#000000" stroke-opacity="0.00" stroke-width="0.3"><path d="
M 101.00 106.00 
C 95.12 105.91 99.72 112.91 101.00 106.00 Z"/>
</g>
<g fill="None" fill-opacity="0.0" stroke="#000000" stroke-opacity="0.00" stroke-width="0.3"><path d="
M 122.00 107.00 
C 121.67 108.27 123.02 108.56 123.00 109.00
C 124.98 108.79 122.84 103.79 122.00 107.00 Z"/>
</g>
<g fill="None" fill-opacity="0.0" stroke="#FFFFFF" stroke-opacity="0.87" stroke-width="0.3"><path d="
M 171.00 107.00 
C 171.00 108.67 171.00 110.33 171.00 112.00
C 171.25 111.75 172.00 112.00 172.00 112.00
C 171.77 110.43 172.43 108.53 172.00 107.00
C 171.74 106.88 171.02 105.97 171.00 106.00
C 171.00 106.00 171.00 106.50 171.00 107.00 Z"/>
</g>
<g fill="None" fill-opacity="0.0" stroke="#000000" stroke-opacity="0.00" stroke-width="0.3"><path d="
M 173.00 107.00 
C 173.10 107.77 173.49 113.66 173.00 114.00
C 174.73 115.58 174.23 113.66 176.00 114.00
C 175.64 112.03 175.73 108.99 176.00 107.00
C 174.65 106.17 174.04 105.94 173.00 107.00 Z"/>
</g>
<g fill="None" fill-opacity="0.0" stroke="#FFFFFF" stroke-opacity="0.25" stroke-width="0.3"><path d="
M 177.00 107.00 
C 176.65 109.42 176.78 112.56 177.00 115.00
C 177.50 115.05 178.00 115.00 178.00 115.00
C 178.21 112.64 178.72 108.24 178.00 106.00
C 178.00 106.17 177.26 106.88 177.00 107.00 Z"/>
</g>
<g fill="None" fill-opacity="0.0" stroke="#FEFEFE" stroke-opacity="0.21" stroke-width="0.3"><path d="
M 123.00 109.00 
C 123.02 108.56 121.67 108.27 122.00 107.00
C 120.24 107.50 121.28 109.72 121.00 111.00
C 121.74 110.86 122.96 109.85 123.00 109.00 Z"/>
</g>
<g fill="None" fill-opacity="0.0" stroke="#FFFFFF" stroke-opacity="0.04" stroke-width="0.3"><path d="
M 171.00 113.00 
C 171.08 112.51 171.00 112.00 171.00 112.00
C 171.00 110.33 171.00 108.67 171.00 107.00
C 169.75 108.60 169.35 111.40 171.00 113.00 Z"/>
</g>
<g fill="None" fill-opacity="0.0" stroke="#FFFFFF" stroke-opacity="0.20" stroke-width="0.3"><path d="
M 172.00 112.00 
C 172.21 113.45 172.01 113.10 173.00 114.00
C 173.49 113.66 173.10 107.77 173.00 107.00
C 173.00 107.00 172.41 107.19 172.00 107.00
C 172.43 108.53 171.77 110.43 172.00 112.00 Z"/>
</g>
<g fill="None" fill-opacity="0.0" stroke="#FFFFFF" stroke-opacity="0.76" stroke-width="0.3"><path d="
M 176.00 114.00 
C 176.07 114.35 176.65 114.97 177.00 115.00
C 176.78 112.56 176.65 109.42 177.00 107.00
C 177.00 107.00 176.36 107.22 176.00 107.00
C 175.73 108.99 175.64 112.03 176.00 114.00 Z"/>
</g>
<g fill="None" fill-opacity="0.0" stroke="#000000" stroke-opacity="0.00" stroke-width="0.3"><path d="
M 78.00 111.00 
C 71.18 110.57 78.94 118.52 78.00 111.00 Z"/>
</g>
<g fill="None" fill-opacity="0.0" stroke="#FFFFFF" stroke-opacity="0.38" stroke-width="0.3"><path d="
M 147.00 115.00 
C 147.24 115.06 148.96 115.72 149.00 116.00
C 148.80 114.13 150.62 112.94 150.00 111.00
C 147.91 110.57 146.29 113.16 147.00 115.00 Z"/>
</g>
<g fill="None" fill-opacity="0.0" stroke="#000000" stroke-opacity="0.00" stroke-width="0.3"><path d="
M 166.00 111.00 
C 160.73 112.19 167.56 117.97 166.00 111.00 Z"/>
</g>
<g fill="None" fill-opacity="0.0" stroke="#FFFFFF" stroke-opacity="0.54" stroke-width="0.3"><path d="
M 171.00 113.00 
C 170.08 118.45 177.14 119.92 178.00 115.00
C 178.00 115.00 177.50 115.05 177.00 115.00
C 176.65 114.97 176.07 114.35 176.00 114.00
C 174.23 113.66 174.73 115.58 173.00 114.00
C 172.01 113.10 172.21 113.45 172.00 112.00
C 172.00 112.00 171.25 111.75 171.00 112.00
C 171.00 112.00 171.08 112.51 171.00 113.00 Z"/>
</g>
<g fill="None" fill-opacity="0.0" stroke="#FFFFFF" stroke-opacity="0.23" stroke-width="0.3"><path d="
M 52.00 114.00 
C 46.65 116.81 55.46 119.29 52.00 114.00 Z"/>
</g>
<g fill="None" fill-opacity="0.0" stroke="#FFFFFF" stroke-opacity="0.25" stroke-width="0.3"><path d="
M 130.00 118.00 
C 133.71 114.33 126.99 113.52 130.00 118.00 Z"/>
</g>
<g fill="#000000" fill-opacity="0.00" stroke="None">
<path d="
M 0.00 200.00 
L 200.00 200.00
L 200.00 0.00
L 0.00 0.00
L 0.00 200.00
M 142.00 92.00 
C 147.93 78.61 154.56 65.54 160.00 52.00
C 171.25 54.27 160.48 68.96 157.08 75.08 C 153.68 81.19 149.76 98.77 142.00 92.00
M 57.00 59.00 
C 57.70 62.27 55.57 64.77 56.00 68.00
C 74.89 68.17 92.95 68.18 110.00 68.00 C 127.06 67.82 108.35 85.56 120.00 89.00
C 115.33 89.00 110.67 89.00 106.00 89.00
C 110.65 87.82 116.23 78.05 110.22 73.78 C 104.21 69.51 101.40 84.11 107.00 87.00
C 98.12 85.90 92.12 90.50 83.00 89.00
C 86.74 87.79 92.73 77.04 86.69 73.31 C 80.66 69.57 78.49 84.83 84.00 87.00
C 80.00 87.00 76.00 87.00 72.00 87.00
C 77.70 83.91 77.95 70.99 69.00 71.00
C 67.51 78.15 66.48 87.12 72.00 92.00
C 67.33 92.00 62.67 92.00 58.00 92.00
C 64.25 87.30 63.08 79.49 62.00 72.00
C 58.07 68.64 54.63 68.70 56.00 75.00
C 53.35 72.17 53.46 67.59 52.00 64.00
C 43.21 60.65 40.69 70.15 44.00 76.00
C 46.86 75.05 46.12 70.90 49.00 70.00
C 48.35 75.50 50.32 82.33 48.00 87.00
C 46.00 84.95 47.01 80.12 43.00 81.00
C 41.50 87.33 44.17 91.17 49.00 94.00
C 43.85 95.12 34.33 96.81 30.00 93.00
C 37.42 92.42 36.86 85.79 36.00 80.00 C 35.14 74.21 39.04 64.83 31.00 64.00
C 34.91 71.09 25.54 73.97 21.00 77.00
C 21.79 82.95 33.22 85.52 30.00 92.00
C 23.22 88.02 17.90 81.39 11.00 78.00
C 20.08 62.90 39.69 58.84 57.00 59.00
M 124.00 61.00 
C 124.72 65.60 122.47 69.43 123.00 74.00
C 115.87 74.56 115.17 57.35 124.00 61.00
M 167.00 92.00 
C 164.43 85.49 174.98 82.81 176.00 77.00
C 170.07 73.96 161.47 69.67 167.00 62.00
C 173.34 63.96 173.33 68.69 179.75 71.25 C 186.17 73.80 186.57 78.98 180.25 82.25 C 173.93 85.51 173.16 89.26 167.00 92.00
M 143.00 66.00 
C 141.04 69.23 143.28 74.25 141.00 77.00
C 140.44 68.48 126.62 68.76 132.09 73.92 C 137.55 79.07 146.08 77.90 143.02 87.02 C 139.97 96.15 129.67 88.18 125.00 92.00
C 125.77 88.50 123.14 82.98 127.00 81.00
C 127.63 90.45 142.01 86.53 134.92 83.08 C 127.83 79.63 121.83 76.28 126.26 68.26 C 130.69 60.24 139.52 69.76 143.00 66.00
M 19.00 105.00 
C 15.89 104.91 17.76 99.09 13.00 101.00
C 11.94 107.47 13.35 120.81 19.00 110.00
C 18.60 121.16 10.91 119.11 10.00 109.00 C 9.09 98.89 17.78 92.48 19.00 105.00
M 38.00 98.00 
C 34.99 103.74 42.51 112.37 36.89 116.89 C 31.28 121.41 29.32 108.45 31.00 104.00
C 36.32 104.33 34.86 99.45 38.00 98.00
M 70.00 105.00 
C 68.27 103.10 67.63 99.83 64.00 101.00
C 62.90 108.05 64.17 120.15 71.00 111.00
C 73.98 115.64 64.29 120.87 62.75 116.25 C 61.22 111.62 61.13 104.10 62.33 99.33 C 63.53 94.56 75.77 100.55 70.00 105.00
M 87.00 98.00 
C 84.50 101.64 85.82 103.41 87.00 107.00
C 80.93 107.76 86.59 114.65 84.00 118.00
C 81.20 114.27 78.44 98.15 87.00 98.00
M 92.00 101.00 
C 95.43 105.39 91.05 111.93 91.00 118.00
C 89.51 112.89 89.12 106.38 90.00 101.00
C 88.59 96.10 98.16 99.12 92.00 101.00
M 108.00 98.00 
C 108.81 98.81 107.69 101.77 106.29 100.63 C 104.90 99.50 107.10 97.10 108.00 98.00
M 143.00 102.00 
C 145.43 107.46 139.44 113.19 147.00 115.00
C 146.29 113.16 147.91 110.57 150.00 111.00
C 150.62 112.94 148.80 114.13 149.00 116.00
C 149.36 118.53 139.76 118.89 141.03 114.97 C 142.31 111.04 139.34 105.73 141.00 102.00
C 137.68 95.34 155.76 98.03 149.00 105.00
C 147.65 103.27 145.61 98.75 143.00 102.00
M 159.00 118.00 
C 155.96 115.09 160.55 108.13 156.00 106.00
C 153.12 109.00 155.20 114.88 153.00 118.00
C 151.19 111.83 151.61 104.20 153.00 98.00
C 156.94 103.41 163.59 109.20 159.00 118.00
M 28.00 103.00 
C 32.30 105.94 28.64 120.88 22.93 117.07 C 17.21 113.26 22.55 99.28 28.00 103.00
M 43.00 115.00 
C 51.40 107.68 46.22 120.07 42.33 117.67 C 38.43 115.26 39.24 101.67 45.01 103.01 C 50.78 104.35 45.40 111.96 43.00 115.00
M 73.00 109.00 
C 79.40 107.32 76.91 107.22 74.00 104.00
C 80.34 100.94 81.37 109.04 80.00 115.00 C 78.63 120.96 69.17 115.64 73.00 109.00
M 103.00 112.00 
C 104.21 127.32 87.09 108.32 97.26 103.26 C 107.43 98.20 95.67 121.95 103.00 112.00
M 107.00 118.00 
C 105.40 114.07 105.30 106.86 107.00 103.00
C 108.72 107.05 108.54 113.62 107.00 118.00
M 116.00 118.00 
C 113.98 114.46 115.45 109.95 115.00 106.00
C 109.13 106.27 114.10 114.52 111.00 117.00
C 108.23 114.20 109.47 101.25 115.01 103.01 C 120.55 104.77 118.13 115.42 116.00 118.00
M 122.00 114.00 
C 124.58 116.53 124.45 111.29 127.00 112.00
C 127.25 123.33 114.09 114.93 119.33 106.33 C 124.57 97.73 130.45 109.78 122.00 114.00
M 162.00 108.00 
C 168.96 108.14 162.86 106.46 163.00 103.00
C 169.30 102.28 171.18 111.02 168.22 116.22 C 165.26 121.42 157.38 112.99 162.00 108.00
M 178.00 106.00 
C 178.72 108.24 178.21 112.64 178.00 115.00
C 177.14 119.92 170.08 118.45 171.00 113.00
C 169.35 111.40 169.75 108.60 171.00 107.00
C 171.00 106.50 171.00 106.00 171.00 106.00
C 170.94 101.58 178.00 102.53 178.00 106.00
M 182.00 108.00 
C 194.90 108.59 179.16 126.81 180.00 112.00
C 182.01 112.33 184.57 117.21 185.00 112.00
C 182.19 113.11 175.72 104.95 181.26 103.26 C 186.79 101.56 185.92 107.91 182.00 108.00
M 52.00 114.00 
C 55.46 119.29 46.65 116.81 52.00 114.00
M 130.00 118.00 
C 126.99 113.52 133.71 114.33 130.00 118.00 Z"/>
</g>
<g fill="#FEFEFE" fill-opacity="0.80" stroke="None">
<path d="
M 142.00 92.00 
C 149.76 98.77 153.68 81.19 157.08 75.08 C 160.48 68.96 171.25 54.27 160.00 52.00
C 154.56 65.54 147.93 78.61 142.00 92.00 Z"/>
</g>
<g fill="#FEFEFE" fill-opacity="0.74" stroke="None">
<path d="
M 57.00 59.00 
C 39.69 58.84 20.08 62.90 11.00 78.00
C 17.90 81.39 23.22 88.02 30.00 92.00
C 33.22 85.52 21.79 82.95 21.00 77.00
C 25.54 73.97 34.91 71.09 31.00 64.00
C 39.04 64.83 35.14 74.21 36.00 80.00 C 36.86 85.79 37.42 92.42 30.00 93.00
C 34.33 96.81 43.85 95.12 49.00 94.00
C 44.17 91.17 41.50 87.33 43.00 81.00
C 47.01 80.12 46.00 84.95 48.00 87.00
C 50.32 82.33 48.35 75.50 49.00 70.00
C 46.12 70.90 46.86 75.05 44.00 76.00
C 40.69 70.15 43.21 60.65 52.00 64.00
C 53.46 67.59 53.35 72.17 56.00 75.00
C 54.63 68.70 58.07 68.64 62.00 72.00
C 63.08 79.49 64.25 87.30 58.00 92.00
C 62.67 92.00 67.33 92.00 72.00 92.00
C 66.48 87.12 67.51 78.15 69.00 71.00
C 77.95 70.99 77.70 83.91 72.00 87.00
C 76.00 87.00 80.00 87.00 84.00 87.00
C 78.49 84.83 80.66 69.57 86.69 73.31 C 92.73 77.04 86.74 87.79 83.00 89.00
C 92.12 90.50 98.12 85.90 107.00 87.00
C 101.40 84.11 104.21 69.51 110.22 73.78 C 116.23 78.05 110.65 87.82 106.00 89.00
C 110.67 89.00 115.33 89.00 120.00 89.00
C 108.35 85.56 127.06 67.82 110.00 68.00 C 92.95 68.18 74.89 68.17 56.00 68.00
C 55.57 64.77 57.70 62.27 57.00 59.00
M 93.00 86.00 
C 92.66 80.55 94.32 76.18 93.00 71.00
C 101.35 71.36 101.67 86.23 93.00 86.00 Z"/>
</g>
<g fill="#FEFEFE" fill-opacity="0.67" stroke="None">
<path d="
M 124.00 61.00 
C 115.17 57.35 115.87 74.56 123.00 74.00
C 122.47 69.43 124.72 65.60 124.00 61.00 Z"/>
</g>
<g fill="#FEFEFE" fill-opacity="0.76" stroke="None">
<path d="
M 167.00 92.00 
C 173.16 89.26 173.93 85.51 180.25 82.25 C 186.57 78.98 186.17 73.80 179.75 71.25 C 173.33 68.69 173.34 63.96 167.00 62.00
C 161.47 69.67 170.07 73.96 176.00 77.00
C 174.98 82.81 164.43 85.49 167.00 92.00 Z"/>
</g>
<g fill="#FEFEFE" fill-opacity="0.74" stroke="None">
<path d="
M 143.00 66.00 
C 139.52 69.76 130.69 60.24 126.26 68.26 C 121.83 76.28 127.83 79.63 134.92 83.08 C 142.01 86.53 127.63 90.45 127.00 81.00
C 123.14 82.98 125.77 88.50 125.00 92.00
C 129.67 88.18 139.97 96.15 143.02 87.02 C 146.08 77.90 137.55 79.07 132.09 73.92 C 126.62 68.76 140.44 68.48 141.00 77.00
C 143.28 74.25 141.04 69.23 143.00 66.00 Z"/>
</g>
<g fill="#000000" fill-opacity="0.00" stroke="None">
<path d="
M 93.00 86.00 
C 101.67 86.23 101.35 71.36 93.00 71.00
C 94.32 76.18 92.66 80.55 93.00 86.00 Z"/>
</g>
<g fill="#FFFFFF" fill-opacity="0.45" stroke="None">
<path d="
M 19.00 105.00 
C 17.78 92.48 9.09 98.89 10.00 109.00 C 10.91 119.11 18.60 121.16 19.00 110.00
C 13.35 120.81 11.94 107.47 13.00 101.00
C 17.76 99.09 15.89 104.91 19.00 105.00 Z"/>
</g>
<g fill="#FEFEFE" fill-opacity="0.64" stroke="None">
<path d="
M 38.00 98.00 
C 34.86 99.45 36.32 104.33 31.00 104.00
C 29.32 108.45 31.28 121.41 36.89 116.89 C 42.51 112.37 34.99 103.74 38.00 98.00
M 36.00 106.00 
C 35.52 108.97 37.69 114.95 33.00 115.00
C 33.75 112.01 30.83 105.26 36.00 106.00 Z"/>
</g>
<g fill="#FFFFFF" fill-opacity="0.51" stroke="None">
<path d="
M 70.00 105.00 
C 75.77 100.55 63.53 94.56 62.33 99.33 C 61.13 104.10 61.22 111.62 62.75 116.25 C 64.29 120.87 73.98 115.64 71.00 111.00
C 64.17 120.15 62.90 108.05 64.00 101.00
C 67.63 99.83 68.27 103.10 70.00 105.00 Z"/>
</g>
<g fill="#FEFEFE" fill-opacity="0.45" stroke="None">
<path d="
M 87.00 98.00 
C 78.44 98.15 81.20 114.27 84.00 118.00
C 86.59 114.65 80.93 107.76 87.00 107.00
C 85.82 103.41 84.50 101.64 87.00 98.00 Z"/>
</g>
<g fill="#FEFEFE" fill-opacity="0.47" stroke="None">
<path d="
M 90.00 101.00 
C 90.18 100.76 91.81 100.76 92.00 101.00
C 98.16 99.12 88.59 96.10 90.00 101.00 Z"/>
</g>
<g fill="#FFFFFF" fill-opacity="0.34" stroke="None">
<path d="
M 108.00 98.00 
C 107.10 97.10 104.90 99.50 106.29 100.63 C 107.69 101.77 108.81 98.81 108.00 98.00 Z"/>
</g>
<g fill="#FFFFFF" fill-opacity="0.48" stroke="None">
<path d="
M 141.00 102.00 
C 141.08 101.81 142.60 102.20 143.00 102.00
C 145.61 98.75 147.65 103.27 149.00 105.00
C 155.76 98.03 137.68 95.34 141.00 102.00 Z"/>
</g>
<g fill="#FEFEFE" fill-opacity="0.43" stroke="None">
<path d="
M 159.00 118.00 
C 163.59 109.20 156.94 103.41 153.00 98.00
C 151.61 104.20 151.19 111.83 153.00 118.00
C 155.20 114.88 153.12 109.00 156.00 106.00
C 160.55 108.13 155.96 115.09 159.00 118.00 Z"/>
</g>
<g fill="#FFFFFF" fill-opacity="0.63" stroke="None">
<path d="
M 92.00 101.00 
C 91.81 100.76 90.18 100.76 90.00 101.00
C 89.12 106.38 89.51 112.89 91.00 118.00
C 91.05 111.93 95.43 105.39 92.00 101.00 Z"/>
</g>
<g fill="#FFFFFF" fill-opacity="0.63" stroke="None">
<path d="
M 149.00 116.00 
C 148.96 115.72 147.24 115.06 147.00 115.00
C 139.44 113.19 145.43 107.46 143.00 102.00
C 142.60 102.20 141.08 101.81 141.00 102.00
C 139.34 105.73 142.31 111.04 141.03 114.97 C 139.76 118.89 149.36 118.53 149.00 116.00 Z"/>
</g>
<g fill="#FEFEFE" fill-opacity="0.54" stroke="None">
<path d="
M 28.00 103.00 
C 22.55 99.28 17.21 113.26 22.93 117.07 C 28.64 120.88 32.30 105.94 28.00 103.00
M 27.00 106.00 
C 26.52 108.97 28.69 114.95 24.00 115.00
C 24.75 112.01 21.83 105.26 27.00 106.00 Z"/>
</g>
<g fill="#FEFEFE" fill-opacity="0.52" stroke="None">
<path d="
M 43.00 115.00 
C 45.40 111.96 50.78 104.35 45.01 103.01 C 39.24 101.67 38.43 115.26 42.33 117.67 C 46.22 120.07 51.40 107.68 43.00 115.00
M 46.00 106.00 
C 44.09 112.45 40.48 106.13 46.00 106.00 Z"/>
</g>
<g fill="#FEFEFE" fill-opacity="0.56" stroke="None">
<path d="
M 73.00 109.00 
C 69.17 115.64 78.63 120.96 80.00 115.00 C 81.37 109.04 80.34 100.94 74.00 104.00
C 76.91 107.22 79.40 107.32 73.00 109.00
M 78.00 111.00 
C 78.94 118.52 71.18 110.57 78.00 111.00 Z"/>
</g>
<g fill="#FEFEFE" fill-opacity="0.53" stroke="None">
<path d="
M 103.00 112.00 
C 95.67 121.95 107.43 98.20 97.26 103.26 C 87.09 108.32 104.21 127.32 103.00 112.00
M 101.00 106.00 
C 99.72 112.91 95.12 105.91 101.00 106.00 Z"/>
</g>
<g fill="#FEFEFE" fill-opacity="0.43" stroke="None">
<path d="
M 107.00 118.00 
C 108.54 113.62 108.72 107.05 107.00 103.00
C 105.30 106.86 105.40 114.07 107.00 118.00 Z"/>
</g>
<g fill="#FEFEFE" fill-opacity="0.41" stroke="None">
<path d="
M 116.00 118.00 
C 118.13 115.42 120.55 104.77 115.01 103.01 C 109.47 101.25 108.23 114.20 111.00 117.00
C 114.10 114.52 109.13 106.27 115.00 106.00
C 115.45 109.95 113.98 114.46 116.00 118.00 Z"/>
</g>
<g fill="#FEFEFE" fill-opacity="0.46" stroke="None">
<path d="
M 122.00 114.00 
C 130.45 109.78 124.57 97.73 119.33 106.33 C 114.09 114.93 127.25 123.33 127.00 112.00
C 124.45 111.29 124.58 116.53 122.00 114.00
M 123.00 109.00 
C 122.96 109.85 121.74 110.86 121.00 111.00
C 121.28 109.72 120.24 107.50 122.00 107.00
C 122.84 103.79 124.98 108.79 123.00 109.00 Z"/>
</g>
<g fill="#FEFEFE" fill-opacity="0.44" stroke="None">
<path d="
M 162.00 108.00 
C 157.38 112.99 165.26 121.42 168.22 116.22 C 171.18 111.02 169.30 102.28 163.00 103.00
C 162.86 106.46 168.96 108.14 162.00 108.00
M 166.00 111.00 
C 167.56 117.97 160.73 112.19 166.00 111.00 Z"/>
</g>
<g fill="#FEFEFE" fill-opacity="0.54" stroke="None">
<path d="
M 171.00 106.00 
C 171.02 105.97 171.74 106.88 172.00 107.00
C 172.41 107.19 173.00 107.00 173.00 107.00
C 174.04 105.94 174.65 106.17 176.00 107.00
C 176.36 107.22 177.00 107.00 177.00 107.00
C 177.26 106.88 178.00 106.17 178.00 106.00
C 178.00 102.53 170.94 101.58 171.00 106.00 Z"/>
</g>
<g fill="#FEFEFE" fill-opacity="0.51" stroke="None">
<path d="
M 182.00 108.00 
C 185.92 107.91 186.79 101.56 181.26 103.26 C 175.72 104.95 182.19 113.11 185.00 112.00
C 184.57 117.21 182.01 112.33 180.00 112.00
C 179.16 126.81 194.90 108.59 182.00 108.00 Z"/>
</g>
<g fill="#000000" fill-opacity="0.00" stroke="None">
<path d="
M 27.00 106.00 
C 21.83 105.26 24.75 112.01 24.00 115.00
C 28.69 114.95 26.52 108.97 27.00 106.00 Z"/>
</g>
<g fill="#000000" fill-opacity="0.00" stroke="None">
<path d="
M 36.00 106.00 
C 30.83 105.26 33.75 112.01 33.00 115.00
C 37.69 114.95 35.52 108.97 36.00 106.00 Z"/>
</g>
<g fill="#000000" fill-opacity="0.00" stroke="None">
<path d="
M 46.00 106.00 
C 40.48 106.13 44.09 112.45 46.00 106.00 Z"/>
</g>
<g fill="#000000" fill-opacity="0.00" stroke="None">
<path d="
M 101.00 106.00 
C 95.12 105.91 99.72 112.91 101.00 106.00 Z"/>
</g>
<g fill="#000000" fill-opacity="0.00" stroke="None">
<path d="
M 122.00 107.00 
C 121.67 108.27 123.02 108.56 123.00 109.00
C 124.98 108.79 122.84 103.79 122.00 107.00 Z"/>
</g>
<g fill="#FFFFFF" fill-opacity="0.87" stroke="None">
<path d="
M 171.00 107.00 
C 171.00 108.67 171.00 110.33 171.00 112.00
C 171.25 111.75 172.00 112.00 172.00 112.00
C 171.77 110.43 172.43 108.53 172.00 107.00
C 171.74 106.88 171.02 105.97 171.00 106.00
C 171.00 106.00 171.00 106.50 171.00 107.00 Z"/>
</g>
<g fill="#000000" fill-opacity="0.00" stroke="None">
<path d="
M 173.00 107.00 
C 173.10 107.77 173.49 113.66 173.00 114.00
C 174.73 115.58 174.23 113.66 176.00 114.00
C 175.64 112.03 175.73 108.99 176.00 107.00
C 174.65 106.17 174.04 105.94 173.00 107.00 Z"/>
</g>
<g fill="#FFFFFF" fill-opacity="0.25" stroke="None">
<path d="
M 177.00 107.00 
C 176.65 109.42 176.78 112.56 177.00 115.00
C 177.50 115.05 178.00 115.00 178.00 115.00
C 178.21 112.64 178.72 108.24 178.00 106.00
C 178.00 106.17 177.26 106.88 177.00 107.00 Z"/>
</g>
<g fill="#FEFEFE" fill-opacity="0.21" stroke="None">
<path d="
M 123.00 109.00 
C 123.02 108.56 121.67 108.27 122.00 107.00
C 120.24 107.50 121.28 109.72 121.00 111.00
C 121.74 110.86 122.96 109.85 123.00 109.00 Z"/>
</g>
<g fill="#FFFFFF" fill-opacity="0.04" stroke="None">
<path d="
M 171.00 113.00 
C 171.08 112.51 171.00 112.00 171.00 112.00
C 171.00 110.33 171.00 108.67 171.00 107.00
C 169.75 108.60 169.35 111.40 171.00 113.00 Z"/>
</g>
<g fill="#FFFFFF" fill-opacity="0.20" stroke="None">
<path d="
M 172.00 112.00 
C 172.21 113.45 172.01 113.10 173.00 114.00
C 173.49 113.66 173.10 107.77 173.00 107.00
C 173.00 107.00 172.41 107.19 172.00 107.00
C 172.43 108.53 171.77 110.43 172.00 112.00 Z"/>
</g>
<g fill="#FFFFFF" fill-opacity="0.76" stroke="None">
<path d="
M 176.00 114.00 
C 176.07 114.35 176.65 114.97 177.00 115.00
C 176.78 112.56 176.65 109.42 177.00 107.00
C 177.00 107.00 176.36 107.22 176.00 107.00
C 175.73 108.99 175.64 112.03 176.00 114.00 Z"/>
</g>
<g fill="#000000" fill-opacity="0.00" stroke="None">
<path d="
M 78.00 111.00 
C 71.18 110.57 78.94 118.52 78.00 111.00 Z"/>
</g>
<g fill="#FFFFFF" fill-opacity="0.38" stroke="None">
<path d="
M 147.00 115.00 
C 147.24 115.06 148.96 115.72 149.00 116.00
C 148.80 114.13 150.62 112.94 150.00 111.00
C 147.91 110.57 146.29 113.16 147.00 115.00 Z"/>
</g>
<g fill="#000000" fill-opacity="0.00" stroke="None">
<path d="
M 166.00 111.00 
C 160.73 112.19 167.56 117.97 166.00 111.00 Z"/>
</g>
<g fill="#FFFFFF" fill-opacity="0.54" stroke="None">
<path d="
M 171.00 113.00 
C 170.08 118.45 177.14 119.92 178.00 115.00
C 178.00 115.00 177.50 115.05 177.00 115.00
C 176.65 114.97 176.07 114.35 176.00 114.00
C 174.23 113.66 174.73 115.58 173.00 114.00
C 172.01 113.10 172.21 113.45 172.00 112.00
C 172.00 112.00 171.25 111.75 171.00 112.00
C 171.00 112.00 171.08 112.51 171.00 113.00 Z"/>
</g>
<g fill="#FFFFFF" fill-opacity="0.23" stroke="None">
<path d="
M 52.00 114.00 
C 46.65 116.81 55.46 119.29 52.00 114.00 Z"/>
</g>
<g fill="#FFFFFF" fill-opacity="0.25" stroke="None">
<path d="
M 130.00 118.00 
C 133.71 114.33 126.99 113.52 130.00 118.00 Z"/>
</g>
</svg>